<svg id="Group_11176" data-name="Group 11176" xmlns="http://www.w3.org/2000/svg" viewBox="0 0 182.996 140">
  <defs>
    <style>
      .cls-1 {
        fill: #410744;
      }

      .cls-2 {
        fill: #fff;
      }

      .cls-3 {
        fill: #df794e;
      }
    </style>
  </defs>
  <path id="Path_3284" data-name="Path 3284" class="cls-1" d="M181.383,16.817a14.468,14.468,0,0,0-8.408-7.207L157.249,4.477a15.317,15.317,0,0,0-4.477-.655,11,11,0,0,0-2.73.328h0L124.817,9.719a14.107,14.107,0,0,0-5.242,3.058c-.655-.218-1.31-.437-2.075-.655a18.177,18.177,0,0,0-6.006-.437V0L96.424,2.621A22.669,22.669,0,0,0,90.091,4.7a23.334,23.334,0,0,0-7.207,5.46,26.122,26.122,0,0,0-4.7,7.316,15.36,15.36,0,0,0-3.058.328,24.5,24.5,0,0,0-8.3,3.058,17.786,17.786,0,0,0-1.856,1.2c-.546-.218-1.092-.328-1.638-.546a22.122,22.122,0,0,0-8.518-.218A25.818,25.818,0,0,0,43.79,26.1a26.912,26.912,0,0,0-7.426,9.064,28.348,28.348,0,0,0-2.293,7.1,39.708,39.708,0,0,0-.328,5.242V57a38.034,38.034,0,0,0,.328,5.132,16.767,16.767,0,0,0,2.184,6.334,2.284,2.284,0,0,0,.437.655,19.881,19.881,0,0,0-13.759-1.966,27.411,27.411,0,0,0-9.064,3.276,33.475,33.475,0,0,0-7.316,6.224,28.339,28.339,0,0,0-4.914,8.408A26.051,26.051,0,0,0,0,94.131v26.317a21.281,21.281,0,0,0,2.293,10.265,17.737,17.737,0,0,0,5.678,6.334,17.508,17.508,0,0,0,8.19,2.839,24.638,24.638,0,0,0,6.334-.218h0l.437-.109h.328l53.945-9.5h.328L148.95,117.5a27.125,27.125,0,0,0,8.19-2.839,32.227,32.227,0,0,0,7.535-5.788,29.684,29.684,0,0,0,5.569-8.408,26.645,26.645,0,0,0,2.184-10.592V64.429a21.789,21.789,0,0,0-1.31-7.753,13.859,13.859,0,0,0,3.822-6.006l.655-2.075,1.42-4.259,5.351-16.6A14.607,14.607,0,0,0,181.383,16.817Z" transform="translate(0)"/>
  <g id="Group_11024" data-name="Group 11024" transform="translate(11.903 56.73)">
    <g id="Group_11022" data-name="Group 11022">
      <path id="Path_3285" data-name="Path 3285" d="M33.068,105.068v2.948a11.983,11.983,0,0,1-.874,4.368,14.258,14.258,0,0,1-2.293,3.931,15.634,15.634,0,0,1-3.494,3.058,10.189,10.189,0,0,1-4.259,1.638,11.888,11.888,0,0,1-3.931.109,10.037,10.037,0,0,1-3.6-1.2,7.652,7.652,0,0,1-2.621-2.948,11.7,11.7,0,0,1-1.092-5.242V85.412a12.459,12.459,0,0,1,.764-4.477A14.258,14.258,0,0,1,13.958,77a12.884,12.884,0,0,1,3.494-2.948,15.248,15.248,0,0,1,4.586-1.638c3.276-.546,5.9,0,7.862,1.747a8.873,8.873,0,0,1,2.293,3.276,11.685,11.685,0,0,1,.874,4.477v2.73l-6.88,1.2V83.556A4.76,4.76,0,0,0,25.1,80.28a3.071,3.071,0,0,0-3.058-.983c-1.747.328-2.839.983-3.385,2.184a9.69,9.69,0,0,0-.874,4.15v24.461a6.209,6.209,0,0,0,.874,3.385c.655.874,1.638,1.092,3.276.874a7.062,7.062,0,0,0,1.42-.437,4.155,4.155,0,0,0,1.42-.983,4.112,4.112,0,0,0,.983-1.638,7.852,7.852,0,0,0,.437-2.4v-2.4Z" transform="translate(-10.9 -50.085)"/>
      <path id="Path_3286" data-name="Path 3286" d="M33.5,118.669,44.2,68.983,49.88,68l10.7,45.974-6.88,1.2-1.966-9.937-9.391,1.638L40.38,117.468ZM50.426,98.9,47.041,82.2h-.109l-3.385,17.909Z" transform="translate(-8.821 -50.473)"/>
      <path id="Path_3287" data-name="Path 3287" d="M83.687,75.738l-6.88,1.2V75.41a6.1,6.1,0,0,0-1.092-3.822c-.764-.983-1.966-1.31-3.713-1.092a4.446,4.446,0,0,0-2.293.983,5.141,5.141,0,0,0-1.42,1.638,6.76,6.76,0,0,0-.764,2.075,16.355,16.355,0,0,0-.218,2.4,13.288,13.288,0,0,0,.109,2.293,4.155,4.155,0,0,0,.546,1.638,2.956,2.956,0,0,0,1.2,1.092,7.747,7.747,0,0,0,2.075.655l5.242,1.2a10.549,10.549,0,0,1,3.713,1.42,7.239,7.239,0,0,1,2.184,2.293,8.708,8.708,0,0,1,.983,3.494,29.316,29.316,0,0,1,.218,4.586,23.8,23.8,0,0,1-.655,5.678,15.2,15.2,0,0,1-1.966,4.7,12.992,12.992,0,0,1-3.713,3.6,16,16,0,0,1-5.569,2.075,10.739,10.739,0,0,1-4.586-.109,8.977,8.977,0,0,1-3.713-1.747,8.719,8.719,0,0,1-2.4-3.167,9.314,9.314,0,0,1-.874-4.259v-2.512l6.88-1.2v2.184a4.664,4.664,0,0,0,1.092,3.167c.764.874,1.966,1.2,3.713.874a7.17,7.17,0,0,0,2.73-.983,3.973,3.973,0,0,0,1.529-1.747,7.741,7.741,0,0,0,.655-2.4,24.707,24.707,0,0,0,.109-2.948,24.763,24.763,0,0,0-.109-3.058,4.152,4.152,0,0,0-.546-1.856,3.414,3.414,0,0,0-1.2-.983,15.826,15.826,0,0,0-2.075-.655l-4.914-1.2c-2.948-.655-4.914-1.966-5.9-3.713A15.339,15.339,0,0,1,60.537,78.8a17.411,17.411,0,0,1,.764-5.242,16.168,16.168,0,0,1,2.184-4.586,13.313,13.313,0,0,1,3.6-3.385,12.51,12.51,0,0,1,5.242-1.966,11.2,11.2,0,0,1,4.7.109,9.165,9.165,0,0,1,3.713,1.856,8.513,8.513,0,0,1,3.058,6.88v3.276Z" transform="translate(-6.373 -50.895)"/>
      <path id="Path_3288" data-name="Path 3288" d="M86.5,109.24V61.3l6.88-1.2v47.83Z" transform="translate(-3.944 -51.2)"/>
      <path id="Path_3289" data-name="Path 3289" d="M98.7,107.289V59.459l6.552-1.2L115.626,85.23h.109V56.4l6.88-1.2v47.83l-6.443,1.092L105.689,77.259h-.109v28.72Z" transform="translate(-2.822 -51.651)"/>
      <path id="Path_3290" data-name="Path 3290" d="M125.9,65.764a13.2,13.2,0,0,1,.983-5.242,11.942,11.942,0,0,1,2.73-4.15,15.943,15.943,0,0,1,3.713-2.839,12.5,12.5,0,0,1,4.15-1.42,13.222,13.222,0,0,1,4.15,0,8.651,8.651,0,0,1,3.713,1.529,7.945,7.945,0,0,1,2.621,3.276,11.268,11.268,0,0,1,.983,4.914V87.058a13.75,13.75,0,0,1-.983,5.351,14.293,14.293,0,0,1-2.621,4.04,12.955,12.955,0,0,1-3.713,2.839,12.5,12.5,0,0,1-4.15,1.42,13.223,13.223,0,0,1-4.15,0,8.651,8.651,0,0,1-3.713-1.529,9.315,9.315,0,0,1-2.73-3.058A11.115,11.115,0,0,1,125.9,91.1ZM132.67,89.9c0,1.638.437,2.839,1.42,3.385a4.113,4.113,0,0,0,3.276.655,6.051,6.051,0,0,0,3.276-1.747,5.755,5.755,0,0,0,1.42-3.931V62.925c0-1.638-.437-2.839-1.42-3.385a4.113,4.113,0,0,0-3.276-.655,6.051,6.051,0,0,0-3.276,1.747,5.755,5.755,0,0,0-1.42,3.931Z" transform="translate(-0.319 -51.95)"/>
    </g>
    <g id="Group_11023" data-name="Group 11023">
      <path id="Path_3291" data-name="Path 3291" class="cls-2" d="M33.068,105.068v2.948a11.983,11.983,0,0,1-.874,4.368,14.258,14.258,0,0,1-2.293,3.931,15.634,15.634,0,0,1-3.494,3.058,10.189,10.189,0,0,1-4.259,1.638,11.888,11.888,0,0,1-3.931.109,10.037,10.037,0,0,1-3.6-1.2,7.652,7.652,0,0,1-2.621-2.948,11.7,11.7,0,0,1-1.092-5.242V85.412a12.459,12.459,0,0,1,.764-4.477A14.258,14.258,0,0,1,13.958,77a12.884,12.884,0,0,1,3.494-2.948,15.248,15.248,0,0,1,4.586-1.638c3.276-.546,5.9,0,7.862,1.747a8.873,8.873,0,0,1,2.293,3.276,11.685,11.685,0,0,1,.874,4.477v2.73l-6.88,1.2V83.556A4.76,4.76,0,0,0,25.1,80.28a3.071,3.071,0,0,0-3.058-.983c-1.747.328-2.839.983-3.385,2.184a9.69,9.69,0,0,0-.874,4.15v24.461a6.209,6.209,0,0,0,.874,3.385c.655.874,1.638,1.092,3.276.874a7.062,7.062,0,0,0,1.42-.437,4.155,4.155,0,0,0,1.42-.983,4.112,4.112,0,0,0,.983-1.638,7.852,7.852,0,0,0,.437-2.4v-2.4Z" transform="translate(-10.9 -50.085)"/>
      <path id="Path_3292" data-name="Path 3292" class="cls-2" d="M33.5,118.669,44.2,68.983,49.88,68l10.7,45.974-6.88,1.2-1.966-9.937-9.391,1.638L40.38,117.468ZM50.426,98.9,47.041,82.2h-.109l-3.385,17.909Z" transform="translate(-8.821 -50.473)"/>
      <path id="Path_3293" data-name="Path 3293" class="cls-2" d="M83.687,75.738l-6.88,1.2V75.41a6.1,6.1,0,0,0-1.092-3.822c-.764-.983-1.966-1.31-3.713-1.092a4.446,4.446,0,0,0-2.293.983,5.141,5.141,0,0,0-1.42,1.638,6.76,6.76,0,0,0-.764,2.075,16.355,16.355,0,0,0-.218,2.4,13.288,13.288,0,0,0,.109,2.293,4.155,4.155,0,0,0,.546,1.638,2.956,2.956,0,0,0,1.2,1.092,7.747,7.747,0,0,0,2.075.655l5.242,1.2a10.549,10.549,0,0,1,3.713,1.42,7.239,7.239,0,0,1,2.184,2.293,8.708,8.708,0,0,1,.983,3.494,29.316,29.316,0,0,1,.218,4.586,23.8,23.8,0,0,1-.655,5.678,15.2,15.2,0,0,1-1.966,4.7,12.992,12.992,0,0,1-3.713,3.6,16,16,0,0,1-5.569,2.075,10.739,10.739,0,0,1-4.586-.109,8.977,8.977,0,0,1-3.713-1.747,8.719,8.719,0,0,1-2.4-3.167,9.314,9.314,0,0,1-.874-4.259v-2.512l6.88-1.2v2.184a4.664,4.664,0,0,0,1.092,3.167c.764.874,1.966,1.2,3.713.874a7.17,7.17,0,0,0,2.73-.983,3.973,3.973,0,0,0,1.529-1.747,7.741,7.741,0,0,0,.655-2.4,24.707,24.707,0,0,0,.109-2.948,24.763,24.763,0,0,0-.109-3.058,4.152,4.152,0,0,0-.546-1.856,3.414,3.414,0,0,0-1.2-.983,15.826,15.826,0,0,0-2.075-.655l-4.914-1.2c-2.948-.655-4.914-1.966-5.9-3.713A15.339,15.339,0,0,1,60.537,78.8a17.411,17.411,0,0,1,.764-5.242,16.168,16.168,0,0,1,2.184-4.586,13.313,13.313,0,0,1,3.6-3.385,12.51,12.51,0,0,1,5.242-1.966,11.2,11.2,0,0,1,4.7.109,9.165,9.165,0,0,1,3.713,1.856,8.513,8.513,0,0,1,3.058,6.88v3.276Z" transform="translate(-6.373 -50.895)"/>
      <path id="Path_3294" data-name="Path 3294" class="cls-2" d="M86.5,109.24V61.3l6.88-1.2v47.83Z" transform="translate(-3.944 -51.2)"/>
      <path id="Path_3295" data-name="Path 3295" class="cls-2" d="M98.7,107.289V59.459l6.552-1.2L115.626,85.23h.109V56.4l6.88-1.2v47.83l-6.443,1.092L105.689,77.259h-.109v28.72Z" transform="translate(-2.822 -51.651)"/>
      <path id="Path_3296" data-name="Path 3296" class="cls-2" d="M125.9,65.764a13.2,13.2,0,0,1,.983-5.242,11.942,11.942,0,0,1,2.73-4.15,15.943,15.943,0,0,1,3.713-2.839,12.5,12.5,0,0,1,4.15-1.42,13.222,13.222,0,0,1,4.15,0,8.651,8.651,0,0,1,3.713,1.529,7.945,7.945,0,0,1,2.621,3.276,11.268,11.268,0,0,1,.983,4.914V87.058a13.75,13.75,0,0,1-.983,5.351,14.293,14.293,0,0,1-2.621,4.04,12.955,12.955,0,0,1-3.713,2.839,12.5,12.5,0,0,1-4.15,1.42,13.223,13.223,0,0,1-4.15,0,8.651,8.651,0,0,1-3.713-1.529,9.315,9.315,0,0,1-2.73-3.058A11.115,11.115,0,0,1,125.9,91.1ZM132.67,89.9c0,1.638.437,2.839,1.42,3.385a4.113,4.113,0,0,0,3.276.655,6.051,6.051,0,0,0,3.276-1.747,5.755,5.755,0,0,0,1.42-3.931V62.925c0-1.638-.437-2.839-1.42-3.385a4.113,4.113,0,0,0-3.276-.655,6.051,6.051,0,0,0-3.276,1.747,5.755,5.755,0,0,0-1.42,3.931Z" transform="translate(-0.319 -51.95)"/>
    </g>
  </g>
  <g id="Group_11027" data-name="Group 11027" transform="translate(45.864 14.415)">
    <g id="Group_11025" data-name="Group 11025">
      <path id="Path_3297" data-name="Path 3297" d="M47.9,52.217a2.336,2.336,0,0,0,.764,1.966,2.226,2.226,0,0,0,2.075.328A2.919,2.919,0,0,0,52.92,53.2a9,9,0,0,0,.655-2.075l5.788-.983a9.787,9.787,0,0,1-2.293,6.552,9.62,9.62,0,0,1-2.73,2.4,10.192,10.192,0,0,1-3.6,1.31,8.245,8.245,0,0,1-4.7-.328,6.1,6.1,0,0,1-2.948-2.512,7.534,7.534,0,0,1-.874-2.512A28.849,28.849,0,0,1,42,51.89v-9.5a29.053,29.053,0,0,1,.218-3.276,7.3,7.3,0,0,1,.874-2.73,10.24,10.24,0,0,1,2.948-3.6,10.734,10.734,0,0,1,4.7-1.966,9.972,9.972,0,0,1,3.6,0,5.957,5.957,0,0,1,2.73,1.42c1.529,1.42,2.293,3.494,2.293,6.334l-5.788.983a3.3,3.3,0,0,0-.764-2.512,2.24,2.24,0,0,0-2.075-.437,3.129,3.129,0,0,0-2.075,1.2,3.945,3.945,0,0,0-.764,2.621Z" transform="translate(-42 -11.594)"/>
      <path id="Path_3298" data-name="Path 3298" d="M72.2,56.361V53.413h-.109A12.909,12.909,0,0,1,69.8,56.252a6.5,6.5,0,0,1-3.276,1.42,6.611,6.611,0,0,1-2.075,0,5.351,5.351,0,0,1-2.075-.764,3.86,3.86,0,0,1-1.529-2.075A9.441,9.441,0,0,1,60.3,51.01a17.937,17.937,0,0,1,.437-4.368,7.389,7.389,0,0,1,1.529-3.385A8.722,8.722,0,0,1,65.1,40.964a15.427,15.427,0,0,1,4.477-1.42c.218,0,.437-.109.655-.109s.437-.109.655,0a1.385,1.385,0,0,0,.655-.109c.218,0,.546-.109.874-.109V36.159a4.153,4.153,0,0,0-.655-2.4,2.2,2.2,0,0,0-2.293-.546A4.267,4.267,0,0,0,67.4,34.3a3.906,3.906,0,0,0-1.2,2.4l-5.678.983a10.641,10.641,0,0,1,2.621-6.77,11.277,11.277,0,0,1,2.73-2.293,10.192,10.192,0,0,1,3.6-1.31,8.807,8.807,0,0,1,3.385,0,6.591,6.591,0,0,1,2.839,1.2,6.306,6.306,0,0,1,1.856,2.512,10.58,10.58,0,0,1,.655,3.931v20.2Zm0-12.558a7.23,7.23,0,0,0-1.638.109,6.848,6.848,0,0,0-3.276,1.42,4.3,4.3,0,0,0-1.31,3.494,3.466,3.466,0,0,0,.764,2.512,2.533,2.533,0,0,0,2.184.655,3.621,3.621,0,0,0,2.293-1.42,4.867,4.867,0,0,0,.874-2.839V43.8Z" transform="translate(-40.316 -11.916)"/>
      <path id="Path_3299" data-name="Path 3299" d="M81.439,55.679V31.218l-2.839.546V27.178l2.839-.546V22.7a9.8,9.8,0,0,1,.655-3.713,7.819,7.819,0,0,1,1.747-2.73,6.194,6.194,0,0,1,2.4-1.747,8.83,8.83,0,0,1,2.73-.874L91.7,13.2v5.46l-2.621.437a2.093,2.093,0,0,0-1.747,2.293v4.259l4.368-.764v4.586l-4.368.764V54.7Z" transform="translate(-38.632 -13.2)"/>
      <path id="Path_3300" data-name="Path 3300" d="M109.072,37.511,97.5,39.586v3.931a2.336,2.336,0,0,0,.764,1.966,2.226,2.226,0,0,0,2.075.328,2.919,2.919,0,0,0,2.184-1.31,9,9,0,0,0,.655-2.075l5.788-.983a9.787,9.787,0,0,1-2.293,6.552,9.62,9.62,0,0,1-2.73,2.4,10.192,10.192,0,0,1-3.6,1.31,8.245,8.245,0,0,1-4.7-.328,6.1,6.1,0,0,1-2.948-2.512,7.534,7.534,0,0,1-.874-2.512A28.843,28.843,0,0,1,91.6,43.19v-9.5a29.05,29.05,0,0,1,.218-3.276,7.3,7.3,0,0,1,.874-2.73,10.241,10.241,0,0,1,2.948-3.6,10.734,10.734,0,0,1,4.7-1.966,9.972,9.972,0,0,1,3.6,0,5.957,5.957,0,0,1,2.73,1.42,7.9,7.9,0,0,1,2.293,6.006v7.972ZM97.5,35l5.678-.983V30.741a3.186,3.186,0,0,0-.764-2.4,2.24,2.24,0,0,0-2.075-.437,3.129,3.129,0,0,0-2.075,1.2,3.466,3.466,0,0,0-.764,2.512Z" transform="translate(-37.436 -12.395)"/>
    </g>
    <g id="Group_11026" data-name="Group 11026">
      <path id="Path_3301" data-name="Path 3301" class="cls-3" d="M47.9,52.217a2.336,2.336,0,0,0,.764,1.966,2.226,2.226,0,0,0,2.075.328A2.919,2.919,0,0,0,52.92,53.2a9,9,0,0,0,.655-2.075l5.788-.983a9.787,9.787,0,0,1-2.293,6.552,9.62,9.62,0,0,1-2.73,2.4,10.192,10.192,0,0,1-3.6,1.31,8.245,8.245,0,0,1-4.7-.328,6.1,6.1,0,0,1-2.948-2.512,7.534,7.534,0,0,1-.874-2.512A28.849,28.849,0,0,1,42,51.89v-9.5a29.053,29.053,0,0,1,.218-3.276,7.3,7.3,0,0,1,.874-2.73,10.24,10.24,0,0,1,2.948-3.6,10.734,10.734,0,0,1,4.7-1.966,9.972,9.972,0,0,1,3.6,0,5.957,5.957,0,0,1,2.73,1.42c1.529,1.42,2.293,3.494,2.293,6.334l-5.788.983a3.3,3.3,0,0,0-.764-2.512,2.24,2.24,0,0,0-2.075-.437,3.129,3.129,0,0,0-2.075,1.2,3.945,3.945,0,0,0-.764,2.621Z" transform="translate(-42 -11.594)"/>
      <path id="Path_3302" data-name="Path 3302" class="cls-3" d="M72.2,56.361V53.413h-.109A12.909,12.909,0,0,1,69.8,56.252a6.5,6.5,0,0,1-3.276,1.42,6.611,6.611,0,0,1-2.075,0,5.351,5.351,0,0,1-2.075-.764,3.86,3.86,0,0,1-1.529-2.075A9.441,9.441,0,0,1,60.3,51.01a17.937,17.937,0,0,1,.437-4.368,7.389,7.389,0,0,1,1.529-3.385A8.722,8.722,0,0,1,65.1,40.964a15.427,15.427,0,0,1,4.477-1.42c.218,0,.437-.109.655-.109s.437-.109.655,0a1.385,1.385,0,0,0,.655-.109c.218,0,.546-.109.874-.109V36.159a4.153,4.153,0,0,0-.655-2.4,2.2,2.2,0,0,0-2.293-.546A4.267,4.267,0,0,0,67.4,34.3a3.906,3.906,0,0,0-1.2,2.4l-5.678.983a10.641,10.641,0,0,1,2.621-6.77,11.277,11.277,0,0,1,2.73-2.293,10.192,10.192,0,0,1,3.6-1.31,8.807,8.807,0,0,1,3.385,0,6.591,6.591,0,0,1,2.839,1.2,6.306,6.306,0,0,1,1.856,2.512,10.58,10.58,0,0,1,.655,3.931v20.2Zm0-12.558a7.23,7.23,0,0,0-1.638.109,6.848,6.848,0,0,0-3.276,1.42,4.3,4.3,0,0,0-1.31,3.494,3.466,3.466,0,0,0,.764,2.512,2.533,2.533,0,0,0,2.184.655,3.621,3.621,0,0,0,2.293-1.42,4.867,4.867,0,0,0,.874-2.839V43.8Z" transform="translate(-40.316 -11.916)"/>
      <path id="Path_3303" data-name="Path 3303" class="cls-3" d="M81.439,55.679V31.218l-2.839.546V27.178l2.839-.546V22.7a9.8,9.8,0,0,1,.655-3.713,7.819,7.819,0,0,1,1.747-2.73,6.194,6.194,0,0,1,2.4-1.747,8.83,8.83,0,0,1,2.73-.874L91.7,13.2v5.46l-2.621.437a2.093,2.093,0,0,0-1.747,2.293v4.259l4.368-.764v4.586l-4.368.764V54.7Z" transform="translate(-38.632 -13.2)"/>
      <path id="Path_3304" data-name="Path 3304" class="cls-3" d="M109.072,37.511,97.5,39.586v3.931a2.336,2.336,0,0,0,.764,1.966,2.226,2.226,0,0,0,2.075.328,2.919,2.919,0,0,0,2.184-1.31,9,9,0,0,0,.655-2.075l5.788-.983a9.787,9.787,0,0,1-2.293,6.552,9.62,9.62,0,0,1-2.73,2.4,10.192,10.192,0,0,1-3.6,1.31,8.245,8.245,0,0,1-4.7-.328,6.1,6.1,0,0,1-2.948-2.512,7.534,7.534,0,0,1-.874-2.512A28.843,28.843,0,0,1,91.6,43.19v-9.5a29.05,29.05,0,0,1,.218-3.276,7.3,7.3,0,0,1,.874-2.73,10.241,10.241,0,0,1,2.948-3.6,10.734,10.734,0,0,1,4.7-1.966,9.972,9.972,0,0,1,3.6,0,5.957,5.957,0,0,1,2.73,1.42,7.9,7.9,0,0,1,2.293,6.006v7.972ZM97.5,35l5.678-.983V30.741a3.186,3.186,0,0,0-.764-2.4,2.24,2.24,0,0,0-2.075-.437,3.129,3.129,0,0,0-2.075,1.2,3.466,3.466,0,0,0-.764,2.512Z" transform="translate(-37.436 -12.395)"/>
    </g>
  </g>
  <g id="Group_11028" data-name="Group 11028" transform="translate(127.056 15.834)">
    <path id="Path_3305" data-name="Path 3305" class="cls-2" d="M124.922,41.015V17.864a1.859,1.859,0,0,1,.109-.764l-6.661,2.184A2.933,2.933,0,0,0,116.514,23l7.207,22.059a3.054,3.054,0,0,0,2.839,2.075,2.129,2.129,0,0,0,.874-.109l1.856-.655A5.493,5.493,0,0,1,124.922,41.015Z" transform="translate(-116.35 -14.261)"/>
    <path id="Path_3306" data-name="Path 3306" class="cls-2" d="M128.812,37.814l7.207-22.059c.109-.218.109-.546.218-.655h-6.88a3.031,3.031,0,0,0-3.058,2.948V41.2a3.125,3.125,0,0,0,3.058,3.058h2.4A5.357,5.357,0,0,1,128.812,37.814Z" transform="translate(-115.435 -14.445)"/>
    <path id="Path_3307" data-name="Path 3307" class="cls-2" d="M156.813,19.523l-15.179-4.914a2.714,2.714,0,0,0-.874-.109,3.012,3.012,0,0,0-2.839,2.075l-7.207,22.059a2.933,2.933,0,0,0,1.856,3.713l15.179,4.914a2.714,2.714,0,0,0,.874.109,3.012,3.012,0,0,0,2.839-2.075l7.207-22.059A2.89,2.89,0,0,0,156.813,19.523ZM147.094,37.1a3.037,3.037,0,0,1-2.73-1.966,9.68,9.68,0,0,0-.655,3.276l-2.621-1.092a10.827,10.827,0,0,0,1.856-2.73,3.3,3.3,0,0,1-3.385-.546c-1.856-1.638-2.293-7.207,8.19-9.173C153.864,33.5,149.606,37.214,147.094,37.1Z" transform="translate(-115.044 -14.5)"/>
  </g>
</svg>
