<svg xmlns="http://www.w3.org/2000/svg" xmlns:xlink="http://www.w3.org/1999/xlink" version="1.1">
    <defs>
        <style>
            svg .icon { display: none }
            svg .icon:target { display: inline }
        </style>
    </defs>

    <svg xmlns="http://www.w3.org/2000/svg" xmlns:xlink="http://www.w3.org/1999/xlink" width="46" height="46" viewBox="0 0 46 46">
        <defs>
            <clipPath id="clip-path">
                <rect width="46" height="46" fill="none"/>
            </clipPath>
        </defs>
        <g id="gift" class="icon" clip-path="url(#clip-path)">
            <rect id="Rectangle_7018" data-name="Rectangle 7018" width="46" height="46" fill="none"/>
            <g transform="translate(2 1.95)">
                <path id="Path_3637" data-name="Path 3637" d="M30,180.947V208.1H67.078V180.947Z" transform="translate(-27.539 -166.05)" fill="#6d0c72"/>
                <path id="Path_3638" data-name="Path 3638" d="M126.245,4.036a4.96,4.96,0,0,0-8.736-2.116l-3.888,4.824L109.757,1.92a4.96,4.96,0,0,0-8.736,2.116,4.968,4.968,0,0,0,1.034,4.11,4.916,4.916,0,0,0,3.839,1.821h15.479a4.973,4.973,0,0,0,4.873-5.931Z" transform="translate(-92.645 0)" fill="#3eacac" opacity="0.8"/>
                <path id="Path_3639" data-name="Path 3639" d="M263.452,9.968H255.7V6.744l3.888-4.823a4.96,4.96,0,0,1,8.736,2.116,4.973,4.973,0,0,1-4.873,5.931Z" transform="translate(-234.725 -0.001)" fill="#3eacac"/>
                <path id="Path_3640" data-name="Path 3640" d="M0,90.947v9.844H42V90.947Z" transform="translate(0 -83.438)" fill="#6d0c72"/>
                <path id="Path_3641" data-name="Path 3641" d="M181,90.947v34.535h12.3V90.947Z" transform="translate(-166.152 -83.432)" fill="#3eacac"/>
                <rect id="Rectangle_7014" data-name="Rectangle 7014" width="6.177" height="34.535" transform="translate(20.975 7.515)" fill="#fff" opacity="0.2"/>
            </g>
        </g>
    </svg> <svg xmlns="http://www.w3.org/2000/svg" xmlns:xlink="http://www.w3.org/1999/xlink" width="46" height="46" viewBox="0 0 46 46">
    <defs>
        <clipPath id="clip-path">
            <rect width="46" height="46" fill="none"/>
        </clipPath>
    </defs>
    <g id="protection" class="icon" clip-path="url(#clip-path)">
        <g id="Component_11_1" data-name="Component 11 – 1" clip-path="url(#clip-path)">
            <rect id="Rectangle_7015" data-name="Rectangle 7015" width="46" height="46" fill="none"/>
            <g transform="translate(3.848 0)">
                <path id="Path_3618" data-name="Path 3618" d="M28.23,170.833v8.43H.5v-8.43a13.865,13.865,0,0,1,27.73,0Zm0,0" transform="translate(0 -142.866)" fill="#6d0c72"/>
                <path id="Path_3620" data-name="Path 3620" d="M77.134,8.509A8.509,8.509,0,1,1,68.626,0,8.519,8.519,0,0,1,77.134,8.509Zm0,0" transform="translate(-54.261)" fill="#fdd1a3"/>
                <path id="Path_3622" data-name="Path 3622" d="M204.631,263.112v3.395a16.112,16.112,0,0,1-8.712,14.311l-1.215.628-1.215-.628a16.107,16.107,0,0,1-8.712-14.311v-3.395l.905-.316a5.5,5.5,0,0,0,3.335-3.24l.331-.869h10.709l.332.869a5.5,5.5,0,0,0,3.335,3.24Zm0,0" transform="translate(-167.721 -235.446)" fill="#3eacac"/>
                <path id="Path_3624" data-name="Path 3624" d="M253.286,331.192l-5.458,5.275-.58.56-4.1-3.876L245,331.188l2.227,2.1.6-.582,3.581-3.461Zm0,0" transform="translate(-220.845 -299.669)" fill="#fff"/>
            </g>
        </g>
    </g>
</svg>


    <svg xmlns="http://www.w3.org/2000/svg" xmlns:xlink="http://www.w3.org/1999/xlink" width="46" height="46" viewBox="0 0 46 46">
        <defs>
            <clipPath id="clip-path">
                <rect width="46" height="46" fill="none"/>
            </clipPath>
        </defs>
        <g id="withdrawals" class="icon" data-name="Component 16 – 1" clip-path="url(#clip-path)">
            <rect id="Rectangle_7019" data-name="Rectangle 7019" width="46" height="46" fill="none"/>
            <path id="Path_3628" data-name="Path 3628" d="M113.6,234.088a3.683,3.683,0,0,0-4.975-1.014l-9.851,6.159h-11.1v1.348H75v7.453h26.357l11.481-8.925A3.684,3.684,0,0,0,113.6,234.088Zm0,0" transform="translate(-68.262 -207.668)" fill="#ffbb85"/>
            <path id="Path_3629" data-name="Path 3629" d="M95.961,214.555h-8.31A9.242,9.242,0,0,0,75,213.3v9.376H95.961a4.062,4.062,0,0,0,0-8.124Zm0,0" transform="translate(-68.262 -188.418)" fill="#fdd1a3"/>
            <path id="Path_3630" data-name="Path 3630" d="M0,215.828H7.4v18.443H0Zm0,0" transform="translate(0 -192.482)" fill="#3eacac"/>
            <g id="Group_12940" data-name="Group 12940" transform="translate(-957 -323)">
                <path id="Path_3626" data-name="Path 3626" d="M226.211,25.5a10,10,0,0,1-10,10h-.062a10,10,0,0,1,0-20h.062A10,10,0,0,1,226.211,25.5Zm0,0" transform="translate(767.789 310.5)" fill="#3eacac"/>
                <path id="Path_3632" data-name="Path 3632" d="M201.211.5h-.054a9.842,9.842,0,1,0,.054,0Zm0,17.4h-.054a7.395,7.395,0,0,1,0-14.789h.054a7.4,7.4,0,0,1,0,14.791Zm0,0" transform="translate(782.789 325.5)" fill="#6d0c72"/>
                <path id="Path_3792" data-name="Path 3792" d="M2.376-4.775a2.465,2.465,0,0,1-.648,1.762,2.809,2.809,0,0,1-1.841.806q-.079.026-.079.092l.013.642a.185.185,0,0,1-.21.21h-.6a.185.185,0,0,1-.21-.21l.013-.642q0-.066-.079-.092A2.834,2.834,0,0,1-3-2.968,2.133,2.133,0,0,1-3.624-4.54v-.537a.185.185,0,0,1,.21-.21H-2.34q.21,0,.21.2v.21a1.337,1.337,0,0,0,.413,1,1.579,1.579,0,0,0,1.146.4A1.486,1.486,0,0,0,.49-3.826,1.149,1.149,0,0,0,.856-4.7a.817.817,0,0,0-.2-.55,1.841,1.841,0,0,0-.511-.406q-.308-.17-.884-.432-.079-.039-.485-.229t-.786-.413A3.981,3.981,0,0,1-3.2-7.7,2.132,2.132,0,0,1-3.6-9.033,2.38,2.38,0,0,1-3-10.71a2.7,2.7,0,0,1,1.7-.8q.079-.026.079-.092l-.013-.734a.185.185,0,0,1,.21-.21h.576a.185.185,0,0,1,.21.21l-.013.721q0,.066.079.092a2.828,2.828,0,0,1,1.828.76A2.283,2.283,0,0,1,2.31-9.085v.406a.185.185,0,0,1-.21.21H1.027a.238.238,0,0,1-.151-.046.137.137,0,0,1-.059-.111v-.144A1.467,1.467,0,0,0,.424-9.826a1.5,1.5,0,0,0-1.14-.413,1.522,1.522,0,0,0-1.009.308,1.044,1.044,0,0,0-.367.845.845.845,0,0,0,.2.57,1.652,1.652,0,0,0,.5.386q.3.157.9.393l.8.328a4.169,4.169,0,0,1,1.566,1.12A2.36,2.36,0,0,1,2.376-4.775Z" transform="translate(984.624 342.544)" fill="#fff"/>
            </g>
        </g>
    </svg>

    <svg xmlns="http://www.w3.org/2000/svg" xmlns:xlink="http://www.w3.org/1999/xlink" width="46" height="46" viewBox="0 0 46 46">
        <defs>
            <clipPath id="clip-path">
                <rect width="46" height="46" fill="none"/>
            </clipPath>
        </defs>
        <g id="technical-support" class="icon" clip-path="url(#clip-path)">
            <rect id="Rectangle_7022" data-name="Rectangle 7022" width="46" height="46" fill="none"/>
            <g transform="translate(4.999 4.685)">
                <path id="Union_34" data-name="Union 34" d="M7049.89,6388.34l-7.889-7.889,2.194-2.192.873-.875.875-.874,2.195-2.194,7.889,7.889a3.717,3.717,0,0,1,0,5.258l-.439.439-.437.438a3.72,3.72,0,0,1-5.26,0Z" transform="translate(-7021.106 -6353.115)" fill="#3eacac"/>
                <path id="Union_36" data-name="Union 36" d="M643.083,6381.151l-2.895-.266L638,6376.063l.874-.874.874-.874,4.822,2.188.266,2.9,8.5,8.5-.872.874-.876.874Z" transform="translate(-637.712 -6373.72)" fill="#d1d3d4"/>
                <path id="Union_37" data-name="Union 37" d="M638,6376.063l.874-.874,3.067,3.069-.874.875Zm.874-.874.872-.874,3.069,3.067-.874.874Z" transform="translate(-617.983 -6353.992)" fill="#d1d3d4"/>
                <path id="Path_3648" data-name="Path 3648" d="M309.16,298.956l.874-.874h0l-.874.874Zm0,0" transform="translate(-285.2 -274.691)" fill="#78b9eb"/>
                <path id="Path_3649" data-name="Path 3649" d="M297.879,310.237l.874-.874h0l-.874.874Zm0,0" transform="translate(-274.793 -285.098)" fill="#78b9eb"/>
                <path id="Union_35" data-name="Union 35" d="M7043.963,6408.861l-.437-.437,24.988-24.981,3.944,1.313,4.673-4.667a8.677,8.677,0,0,1-10.42,11.292l-17.483,17.48a3.728,3.728,0,0,1-5.265,0Zm-.874-.873a3.727,3.727,0,0,1,0-5.265l17.479-17.483a8.678,8.678,0,0,1,11.292-10.422l-4.667,4.675,1.314,3.944-8.69,8.692-16.293,16.293Z" transform="translate(-7042 -6374)" fill="#6d0c72"/>
            </g>
        </g>
    </svg>

    <svg xmlns="http://www.w3.org/2000/svg" xmlns:xlink="http://www.w3.org/1999/xlink" width="46" height="46" viewBox="0 0 46 46">
        <defs>
            <clipPath id="clip-path">
                <rect width="46" height="46" fill="none"/>
            </clipPath>
        </defs>
        <g id="financial-issues" class="icon" data-name="Component 14 – 1" clip-path="url(#clip-path)">
            <rect id="Rectangle_7021" data-name="Rectangle 7021" width="46" height="46" fill="none"/>
            <g id="Group_12882" data-name="Group 12882" transform="translate(-777.385 -454)">
                <g id="Group_12881" data-name="Group 12881" transform="translate(779.385 458)">
                    <g id="_020-wallet" data-name="020-wallet" transform="translate(0 0)">
                        <path id="Path_3780" data-name="Path 3780" d="M38.109,89.015v18.877a2.817,2.817,0,0,1-2.817,2.816H2.817A2.817,2.817,0,0,1,0,107.892V81.523a3.69,3.69,0,0,0,3.69,3.69H34.307A3.8,3.8,0,0,1,38.109,89.015Zm0,0" transform="translate(0 -73.271)" fill="#3eacac"/>
                        <path id="Path_3782" data-name="Path 3782" d="M310.628,195.263h-7.649a1.744,1.744,0,0,1-1.744-1.744v-3.891a1.744,1.744,0,0,1,1.744-1.744h9.662v5.367A2.012,2.012,0,0,1,310.628,195.263Zm0,0" transform="translate(-270.64 -168.828)" fill="#6d0c72"/>
                        <path id="Path_3783" data-name="Path 3783" d="M32.876,48.993v3.578H3.69A3.69,3.69,0,0,1,0,48.881l.006-.19A3.686,3.686,0,0,1,3.5,45.2c.063,0,.127-.005.19-.005H29.073A3.8,3.8,0,0,1,32.876,48.993Zm0,0" transform="translate(0 -40.629)" fill="#6d0c72"/>
                        <path id="Path_3784" data-name="Path 3784" d="M100.414,13.48v10.6h18.492V13.48Zm0,0" transform="translate(-90.216 -12.139)" fill="#3eacac"/>
                        <path id="Path_3785" data-name="Path 3785" d="M132.5,32.633v6.876H117.477V32.633a2.118,2.118,0,0,0,1.978-1.98h11.069A2.117,2.117,0,0,0,132.5,32.633Zm0,0" transform="translate(-105.545 -27.567)" fill="#d9d9d9"/>
                        <path id="Path_3786" data-name="Path 3786" d="M43.605.27V12.212H62.1V.27Zm0,0" transform="translate(-39.177 -0.27)" fill="#3eacac"/>
                        <path id="Path_3787" data-name="Path 3787" d="M75.7,19.254v8.291H60.672V19.254a2.119,2.119,0,0,0,1.917-1.918H73.778A2.12,2.12,0,0,0,75.7,19.254Zm0,0" transform="translate(-54.51 -15.603)" fill="#eeeeef"/>
                        <path id="Path_3788" data-name="Path 3788" d="M107.431,87.186a3.467,3.467,0,0,0-6.934,0Zm0,0" transform="translate(-90.289 -75.243)" fill="#3eacac"/>
                        <path id="Path_3789" data-name="Path 3789" d="M325.578,216.568a.939.939,0,1,1-.939-.939A.939.939,0,0,1,325.578,216.568Zm0,0" transform="translate(-290.824 -193.756)" fill="#eeeeef"/>
                        <path id="Path_3790" data-name="Path 3790" d="M379.118,174.824h-3.891v-1.476h2.818a1.073,1.073,0,0,1,1.074,1.074Zm0,0" transform="translate(-337.118 -155.769)" fill="#6d0c72"/>
                    </g>
                </g>
                <path id="Path_3791" data-name="Path 3791" d="M3.7-3.056A3.011,3.011,0,0,1,2.912-.9,3.43,3.43,0,0,1,.664.08q-.1.032-.1.112L.584.976a.226.226,0,0,1-.256.256H-.408A.226.226,0,0,1-.664.976L-.648.192q0-.08-.1-.112A3.462,3.462,0,0,1-2.856-.848a2.6,2.6,0,0,1-.768-1.92v-.656a.226.226,0,0,1,.256-.256h1.312q.256,0,.256.24v.256A1.633,1.633,0,0,0-1.3-1.96a1.928,1.928,0,0,0,1.4.488A1.815,1.815,0,0,0,1.4-1.9,1.4,1.4,0,0,0,1.848-2.96,1,1,0,0,0,1.6-3.632a2.249,2.249,0,0,0-.624-.5Q.6-4.336-.1-4.656-.2-4.7-.7-4.936t-.96-.5A4.862,4.862,0,0,1-3.112-6.624a2.6,2.6,0,0,1-.48-1.632A2.907,2.907,0,0,1-2.856-10.3a3.3,3.3,0,0,1,2.08-.976q.1-.032.1-.112l-.016-.9a.226.226,0,0,1,.256-.256h.7a.226.226,0,0,1,.256.256l-.016.88q0,.08.1.112a3.454,3.454,0,0,1,2.232.928A2.788,2.788,0,0,1,3.624-8.32v.5a.226.226,0,0,1-.256.256H2.056a.291.291,0,0,1-.184-.056A.167.167,0,0,1,1.8-7.76v-.176a1.792,1.792,0,0,0-.48-1.288,1.832,1.832,0,0,0-1.392-.5A1.858,1.858,0,0,0-1.3-9.352,1.275,1.275,0,0,0-1.752-8.32a1.032,1.032,0,0,0,.24.7A2.018,2.018,0,0,0-.9-7.152q.368.192,1.1.48l.976.4A5.092,5.092,0,0,1,3.088-4.9,2.882,2.882,0,0,1,3.7-3.056Z" transform="translate(791.09 489.177)" fill="#fff"/>
            </g>
        </g>
    </svg>

    <svg xmlns="http://www.w3.org/2000/svg" xmlns:xlink="http://www.w3.org/1999/xlink" width="48" height="48" viewBox="0 0 48 48">
        <defs>
            <clipPath id="clip-path">
                <rect width="48" height="48" fill="none"/>
            </clipPath>
        </defs>
        <g id="bitcoin" class="icon" clip-path="url(#clip-path)">
            <rect id="Rectangle_7020" data-name="Rectangle 7020" width="48" height="48" fill="none"/>
            <g transform="translate(6 6)">
                <path id="Path_3612" data-name="Path 3612" d="M36,18A18,18,0,0,1,5.271,30.724,18,18,0,0,1,30.725,5.271,17.88,17.88,0,0,1,36,18Zm0,0" fill="#6d0c72"/>
                <path id="Path_3614" data-name="Path 3614" d="M82.4,68.2A14.2,14.2,0,1,1,68.2,54,14.218,14.218,0,0,1,82.4,68.2Zm0,0" transform="translate(-50.204 -50.204)" fill="#df794e"/>
                <path id="Path_3616" data-name="Path 3616" d="M182.648,138.955a3.777,3.777,0,0,0-1.947-5.764v-2.48h-2.109v2.3h-1.156v-2.3h-2.109v2.3h-2.588v2.109h1.8v8.8h-1.8v2.109h2.588v2.3h2.109v-2.3h1.156v2.3H180.7v-2.3h.089a3.78,3.78,0,0,0,1.858-7.073Zm-6-3.834h2.9a1.672,1.672,0,1,1,0,3.344h-2.9Zm4.143,8.8h-4.143v-3.344h4.143a1.672,1.672,0,1,1,0,3.344Zm0,0" transform="translate(-160.594 -121.521)" fill="#fff"/>
            </g>
        </g>
    </svg>

    <svg xmlns="http://www.w3.org/2000/svg" width="64" height="59.001" viewBox="0 0 64 59.001">
        <g id="no-result" class="icon" data-name="Group 13116" transform="translate(8619 1958)">
            <path id="Path_3858" data-name="Path 3858" d="M35.365,68.3H0v-5H35.365a5.13,5.13,0,1,0-5.123-5.136h-5A10.122,10.122,0,1,1,35.365,68.3Z" transform="translate(-8619 -2002.534)" fill="#6d0c72"/>
            <path id="Path_3859" data-name="Path 3859" d="M56.25,211.092l-4.023-2.967a12.93,12.93,0,0,1-10.364,5.244H0v5H41.863A17.95,17.95,0,0,0,56.25,211.092Z" transform="translate(-8619 -2142.609)" fill="#dd784d"/>
            <rect id="Rectangle_7062" data-name="Rectangle 7062" width="11.872" height="4.999" transform="translate(-8619 -1919.255)" fill="#dd784d"/>
            <path id="Path_3860" data-name="Path 3860" d="M278.674,329.961H256.93v5h21.744a5.13,5.13,0,1,1-5.124,5.136h-5a10.122,10.122,0,1,0,10.122-10.134Z" transform="translate(-8843.813 -2249.216)" fill="#6d0c72"/>
            <path id="Path_3861" data-name="Path 3861" d="M417.278,71.425l-3.535-3.535-3.231,3.231-3.231-3.231-3.535,3.535,3.231,3.231-3.231,3.231,3.535,3.534,3.231-3.231,3.231,3.231,3.535-3.534-3.231-3.231Z" transform="translate(-8972.277 -2019.904)" fill="#3eacac"/>
            <path id="Path_3862" data-name="Path 3862" d="M132.118,329.914l-3.231,3.231-3.231-3.231-3.535,3.535,3.231,3.231-3.231,3.231,3.535,3.535,3.231-3.231,3.231,3.231,3.535-3.535-3.231-3.231,3.231-3.231Z" transform="translate(-8725.855 -2249.175)" fill="#3eacac"/>
            <path id="Path_3863" data-name="Path 3863" d="M36.679,33.532,39.911,30.3l3.231,3.231L46.676,30l-3.231-3.231,3.231-3.231L43.142,20l-3.231,3.231L36.679,20l-3.535,3.535,3.231,3.231L33.145,30Z" transform="translate(-8648.002 -1978)" fill="#3eacac"/>
        </g>
    </svg>

    <svg id="chip" xmlns="http://www.w3.org/2000/svg" width="36" height="36" viewBox="0 0 36 36">
        <g id="casino-gameplay" class="icon">
            <path id="Path_3935" data-name="Path 3935" d="M35.98,17.139c0-.045,0-.091-.007-.136,0-.027,0-.053,0-.081q-.016-.269-.039-.538-.027-.308-.065-.614c-.009-.073-.018-.147-.029-.22s-.02-.146-.031-.219c-.023-.153-.046-.305-.073-.456-.011-.066-.023-.132-.036-.2s-.027-.145-.041-.217-.029-.144-.044-.216q-.042-.2-.089-.4l-.055-.228q-.19-.761-.445-1.5c-.024-.07-.049-.14-.074-.21-.071-.2-.146-.4-.226-.6q-.04-.1-.082-.2c-.024-.058-.049-.116-.073-.174s-.056-.129-.084-.193-.051-.115-.077-.172-.041-.091-.063-.136c-.007-.017-.015-.033-.023-.05-.022-.048-.045-.1-.068-.144-.052-.11-.106-.219-.161-.328-.032-.064-.065-.127-.1-.191q-.113-.218-.233-.434c-.02-.038-.041-.075-.063-.113s-.034-.061-.052-.091h0c-.025-.044-.049-.087-.074-.13-.039-.065-.077-.13-.115-.194q-.2-.34-.423-.671c-.075-.113-.15-.225-.229-.337-.051-.075-.1-.148-.156-.221s-.088-.122-.133-.183c-.019-.027-.039-.053-.058-.079q-.109-.147-.221-.29Q32.1,6.8,31.956,6.63l-.072-.088q-.327-.4-.678-.773l-.1-.107L31.1,5.655c-.047-.05-.094-.1-.143-.149q-.113-.118-.229-.234c-.056-.056-.111-.11-.167-.165l-.1-.1c-.051-.049-.1-.1-.154-.146s-.124-.116-.187-.173-.139-.125-.208-.187-.149-.131-.225-.2c-.049-.043-.1-.084-.148-.126l-.176-.146c-.059-.049-.118-.1-.178-.143l-.147-.116c-.052-.04-.1-.081-.157-.12l-.1-.077-.123-.092-.061-.045-.122-.088c-.067-.049-.134-.1-.2-.143-.124-.087-.249-.172-.375-.255-.072-.048-.145-.095-.218-.141l-.2-.125-.053-.033-.163-.1L27.2,2.519,27,2.4c-.075-.044-.149-.086-.225-.128l-.1-.058q-.3-.163-.6-.314l-.144-.072-.144-.07-.145-.069-.146-.068q-.4-.181-.8-.343l-.2-.08-.2-.077-.157-.058c-.093-.034-.186-.066-.279-.1L23.662.9q-.592-.2-1.2-.349L22.3.515,22.119.471,21.964.435,21.755.39,21.608.36,21.5.338q-.57-.113-1.148-.187l-.157-.02q-.251-.031-.5-.053h0c-.058-.006-.117-.011-.176-.015q-.227-.02-.455-.032L18.946.025l-.108,0H18.8L18.55.008h-.035c-.084,0-.169,0-.254-.006L18,0q-.529,0-1.055.031a17.85,17.85,0,0,0-7.1,1.91l-.184.1c-.184.1-.368.2-.548.3q-.555.315-1.088.671-.259.174-.513.356A18.294,18.294,0,0,0,3.293,7.614q-.193.271-.375.548A17.845,17.845,0,0,0,.027,17.014Q0,17.505,0,18q0,.564.034,1.123.017.287.044.572A17.855,17.855,0,0,0,1.628,25.5q.146.316.3.626a17.905,17.905,0,0,0,1.063,1.822,18.275,18.275,0,0,0,5.15,5.117,17.581,17.581,0,0,0,1.829,1.053q.266.133.536.257a17.851,17.851,0,0,0,5.837,1.548q.322.031.645.047Q17.492,36,18,36c.112,0,.223,0,.334,0l.174,0h.017l.065,0H18.6l.224-.008.242-.013H19.1l.244-.016q.223-.017.444-.038l.233-.025.229-.027.2-.026.136-.019.095-.014.206-.032.155-.025.117-.02.021,0,.12-.022.044-.008.117-.022a.107.107,0,0,0,.025,0l.092-.018.177-.037q.279-.058.555-.127c.063-.015.126-.031.188-.047l.112-.029.147-.039h0c.059-.016.119-.032.178-.05l.157-.045.3-.091.2-.063.215-.072.108-.037.108-.038c.071-.025.143-.051.214-.077l.212-.079.212-.083.21-.085.21-.088.014-.006.253-.111.008,0,.25-.115q.254-.119.5-.245l.234-.12.181-.1c.177-.094.352-.193.525-.293l.214-.127c.162-.1.323-.2.482-.3l.188-.124q.249-.165.493-.34c.1-.072.2-.146.3-.221s.2-.15.3-.227l.118-.093c.059-.046.118-.094.176-.141s.1-.079.146-.12l.169-.142q.563-.478,1.092-1.007.123-.123.244-.249c.049-.05.1-.1.143-.151.093-.1.183-.2.273-.3s.169-.19.252-.286l.025-.03c.05-.058.1-.116.148-.174q.112-.133.221-.268l.091-.114L32.252,29c.042-.054.084-.109.126-.165q.1-.137.2-.276l.1-.143a.069.069,0,0,0,.008-.011c.074-.1.147-.209.219-.314.047-.068.093-.137.138-.206l.006-.009a.084.084,0,0,0,.006-.011c.029-.043.057-.085.084-.129l.03-.047q.083-.131.166-.264c.046-.075.091-.149.136-.224l.053-.09.079-.135q.2-.344.381-.7c.04-.077.079-.155.118-.233.06-.12.12-.24.176-.362.046-.1.093-.2.138-.3.025-.054.048-.108.072-.162s.056-.13.084-.195c.124-.289.238-.582.345-.878.019-.051.037-.1.055-.153.069-.193.134-.389.195-.585.021-.065.041-.131.06-.2s.037-.124.056-.186c.025-.084.049-.169.072-.255,0-.013.007-.025.01-.038.019-.069.037-.138.055-.207,0-.018.01-.035.013-.053.015-.056.03-.113.043-.17l.027-.113c.08-.337.151-.679.211-1.022.009-.052.019-.1.027-.157s.015-.088.022-.132c.012-.072.023-.146.034-.219s.021-.146.031-.219c.015-.107.028-.213.04-.32.007-.058.013-.117.02-.176.008-.076.016-.153.023-.229,0-.039.008-.077.011-.115s.006-.077.01-.115c.006-.068.011-.136.015-.2,0-.03,0-.06.006-.089,0-.056.007-.112.01-.168q.007-.129.013-.257.012-.257.015-.515c0-.086,0-.172,0-.259v-.019Q36,17.558,35.98,17.139Z" fill="#f1f1f1"/>
            <path id="Path_3937" data-name="Path 3937" d="M35.98,17.139c0-.045,0-.091-.007-.136,0-.027,0-.053,0-.081q-.016-.269-.039-.538-.027-.308-.065-.614c-.009-.073-.018-.147-.029-.22s-.02-.146-.031-.219c-.023-.153-.046-.305-.073-.456-.011-.066-.023-.132-.036-.2s-.027-.145-.041-.217-.029-.144-.044-.216q-.042-.2-.089-.4l-.055-.228q-.19-.761-.445-1.5c-.024-.07-.049-.14-.074-.21-.071-.2-.146-.4-.226-.6q-.04-.1-.082-.2c-.024-.058-.049-.116-.073-.174s-.056-.129-.084-.193-.051-.115-.077-.172-.041-.091-.063-.136c-.007-.017-.015-.033-.023-.05-.022-.048-.045-.1-.068-.144-.052-.11-.106-.219-.161-.328-.032-.064-.065-.127-.1-.191q-.113-.218-.233-.434c-.02-.038-.041-.075-.063-.113q-.062-.112-.127-.221c-.039-.065-.077-.13-.115-.194q-.2-.34-.423-.671L28.375,10.78a12.733,12.733,0,0,0-3.168-3.164l2.687-4.659c-.072-.048-.145-.095-.218-.141l-.2-.125-.053-.033c-.076-.047-.152-.093-.229-.139L27,2.4c-.075-.044-.149-.086-.225-.128l-.1-.058q-.3-.163-.6-.314l-.144-.072-.144-.07-.145-.069-.146-.067q-.4-.181-.8-.343l-.2-.08-.2-.077-.157-.058c-.093-.034-.186-.066-.279-.1L23.662.9q-.592-.2-1.2-.349L22.3.515,22.119.471,21.964.435,21.755.39,21.608.36,21.5.338q-.57-.113-1.148-.187l-.157-.02q-.251-.031-.5-.053h0c-.058-.006-.117-.011-.176-.015q-.227-.02-.455-.032L18.946.025l-.108,0c-.108,0-.215-.009-.323-.012l-.127,0-.127,0L18,0q-.529,0-1.055.031V5.4A12.557,12.557,0,0,0,12.56,6.585L9.85,1.941l-.184.1c-.184.1-.366.2-.548.3h0q-.555.315-1.088.671-.259.174-.513.356A18.294,18.294,0,0,0,3.293,7.614q-.193.271-.375.548A17.762,17.762,0,0,0,1.87,9.992l4.669,2.67a12.538,12.538,0,0,0-1.144,4.331l-5.368.02Q0,17.505,0,18q0,.564.034,1.123.017.287.044.572A17.855,17.855,0,0,0,1.628,25.5q.146.316.3.626a17.905,17.905,0,0,0,1.063,1.822l4.649-2.7A12.744,12.744,0,0,0,10.819,28.4L8.144,33.068a17.58,17.58,0,0,0,1.829,1.053q.266.133.536.257a17.851,17.851,0,0,0,5.837,1.548q.322.031.645.047Q17.492,36,18,36c.112,0,.223,0,.334,0l.174,0h.017l.065,0H18.6l.224-.008.242-.013H19.1L19.086,30.6a12.544,12.544,0,0,0,4.324-1.171l2.7,4.651.234-.12.181-.1c.177-.094.352-.193.525-.293l.214-.127c.162-.1.323-.2.482-.3l.188-.124q.249-.165.493-.34c.1-.072.2-.146.3-.221s.2-.15.3-.227l.118-.093c.059-.046.118-.094.176-.141s.1-.079.146-.12l.169-.142q.563-.478,1.092-1.007.123-.123.244-.249c.049-.05.1-.1.143-.151.093-.1.183-.2.273-.3s.169-.19.252-.286l.025-.03c.05-.058.1-.116.148-.174q.112-.133.221-.268l.091-.114c.043-.054.085-.108.127-.162s.084-.109.126-.165q.1-.137.2-.276l.1-.143a.069.069,0,0,0,.008-.011c.074-.1.147-.209.219-.314.047-.068.093-.137.138-.206l.006-.009a.084.084,0,0,0,.006-.011c.029-.043.057-.085.084-.129l.03-.047q.083-.131.166-.264c.046-.075.091-.149.136-.224s.089-.15.132-.225q.2-.344.381-.7c.04-.077.079-.155.118-.233l-4.662-2.681A12.557,12.557,0,0,0,30.6,19.039l5.368-.007q.007-.129.013-.257.012-.257.015-.515c0-.086,0-.172,0-.259Q36,17.568,35.98,17.139ZM18,28.536A10.536,10.536,0,1,1,28.536,18,10.548,10.548,0,0,1,18,28.536Z" fill="#6d0c72"/>
            <path id="Path_3940" data-name="Path 3940" d="M187.871,171.574a3.059,3.059,0,0,1-2.681,1.577,3.488,3.488,0,0,1-1.207-.208,1.107,1.107,0,0,0,.287.61l.144.1v.947h-3.174v-.948l.144-.1a1.108,1.108,0,0,0,.288-.61,3.487,3.487,0,0,1-1.207.208,3.059,3.059,0,0,1-2.681-1.577,3.306,3.306,0,0,1-.046-3.391,9.3,9.3,0,0,1,1.9-2.205c.124-.116.241-.226.357-.338.436-.419.877-.822,1.3-1.213s.862-.788,1.292-1.2l.236-.226.236.226c.43.413.868.814,1.292,1.2s.868.794,1.3,1.213c.116.112.233.221.357.338a9.3,9.3,0,0,1,1.9,2.205A3.306,3.306,0,0,1,187.871,171.574Z" transform="translate(-164.828 -151.539)" fill="#3eacac"/>
        </g>
    </svg>

</svg>
